# xmcd
#
# Track frame offsets: 
#        150
#        21476
#        56019
#        81740
#        104433
#        109514
#        162945
#        196336
#        215764
#
# Disc length: 3706 seconds
#
# Revision: 0
# Processed by: cddbd v1.5.2PL0 Copyright (c) Steve Scherf et al.
# Submitted via: ExactAudioCopy v1.3
#
DISCID=820e7809
DTITLE=Knut Reiersrud Band - Life - Live at Roverstaden
DYEAR=2019
DGENRE=Blues
TTITLE0=Living on Borrowed Time
TTITLE1=Life
TTITLE2=Sacred Mama
TTITLE3=Jordan's Water
TTITLE4=Clap Hands
TTITLE5=Weakness (Is a Thing Called Man)
TTITLE6=When Seasons Change
TTITLE7=They Only Ask for Love
TTITLE8=I Can't Stop
EXTD=
EXTT0=
EXTT1=
EXTT2=
EXTT3=
EXTT4=
EXTT5=
EXTT6=
EXTT7=
EXTT8=
PLAYORDER=
